<?xml version="1.0" encoding="UTF-8"?>
<svg width="18px" height="20px" viewBox="0 0 18 20" version="1.1" xmlns="http://www.w3.org/2000/svg" xmlns:xlink="http://www.w3.org/1999/xlink">
    <title>Icon — Notifications</title>
    <g id="Design-System" stroke="none" stroke-width="1" fill="none" fill-rule="evenodd">
        <g id="Backend-Design-System/Atoms/Icons" transform="translate(-65.000000, -517.000000)">
            <g id="Notifications" transform="translate(50.000000, 453.000000)">
                <g id="Default" transform="translate(0.000000, 50.000000)">
                    <g id="Group" transform="translate(12.000000, 12.000000)">
                        <rect id="Area" x="0" y="0" width="24" height="24"></rect>
                        <path d="M15,19 C15,20.6568542 13.6568542,22 12,22 C10.3431458,22 9,20.6568542 9,19 L15,19 Z M12,2 C15.8659932,2 19,5.13400675 19,9 L19,14 L20,14 C20.5522847,14 21,14.4477153 21,15 L21,17 C21,17.5522847 20.5522847,18 20,18 L4,18 C3.44771525,18 3,17.5522847 3,17 L3,15 C3,14.4477153 3.44771525,14 4,14 L5,14 L5,9 C5,5.13400675 8.13400675,2 12,2 Z" id="Icon" fill="#181E26"></path>
                    </g>
                </g>
            </g>
        </g>
    </g>
</svg>