<?xml version="1.0" encoding="UTF-8"?>
<svg width="16px" height="12px" viewBox="0 0 16 12" version="1.1" xmlns="http://www.w3.org/2000/svg" xmlns:xlink="http://www.w3.org/1999/xlink">
    <defs>
        <filter id="filter-1">
            <feColorMatrix in="SourceGraphic" type="matrix" values="0 0 0 0 0.462745 0 0 0 0 0.196078 0 0 0 0 0.823529 0 0 0 1.000000 0"></feColorMatrix>
        </filter>
    </defs>
    <g id="Design-System" stroke="none" stroke-width="1" fill="none" fill-rule="evenodd">
        <g id="Backend-Design-System/Atoms/Icons" transform="translate(-461.000000, -1049.000000)">
            <g id="Other" transform="translate(50.000000, 877.000000)">
                <g id="Articles" transform="translate(395.000000, 154.000000)">
                    <g id="Icon-—-Top-Dashboard-—-Knowledge-Articles" transform="translate(16.000000, 16.000000)" filter="url(#filter-1)">
                        <g>
                            <rect id="Area" x="0" y="0" width="16" height="16"></rect>
                            <path d="M12.7528302,8.4753932 L12.7528302,11.5143652 C12.7528228,11.8169965 12.615773,12.1033479 12.3800791,12.2931745 C10.9867923,13.4153203 9.44437603,13.9763932 7.75283022,13.9763932 C6.06126263,13.9763932 4.51882839,13.4153059 3.1255275,12.2931311 C2.88987273,12.1032776 2.75283022,11.8169386 2.75283022,11.5143208 L2.75283022,8.4753932 L7.6633875,10.9316718 C7.71969299,10.9598246 7.78596744,10.9598246 7.84227293,10.9316718 L12.7528302,8.4753932 Z M14.7518302,7.4763932 L14.7528302,11.4763932 C14.7528302,11.7525356 14.5289726,11.9763932 14.2528302,11.9763932 C13.9766878,11.9763932 13.7528302,11.7525356 13.7528302,11.4763932 L13.7518302,7.9763932 L14.7518302,7.4763932 Z M7.7833829,2.00234606 L7.84227293,2.02111456 L15.3950593,5.79750776 C15.4337648,5.8168605 15.4651493,5.848245 15.4845021,5.88695048 C15.5338999,5.98574618 15.493855,6.10588079 15.3950593,6.15527864 L15.3950593,6.15527864 L7.84227293,9.93167184 C7.78596744,9.95982459 7.71969299,9.95982459 7.6633875,9.93167184 L7.6633875,9.93167184 L0.110601092,6.15527864 C0.0718956117,6.1359259 0.0405111133,6.1045414 0.0211583731,6.06583592 C-0.0282394766,5.96704022 0.0118053927,5.84690561 0.110601092,5.79750776 L0.110601092,5.79750776 L7.6633875,2.02111456 C7.71969299,1.99296181 7.78596744,1.99296181 7.84227293,2.02111456 Z" id="Hat" fill="#000000" fill-rule="nonzero"></path>
                        </g>
                    </g>
                </g>
            </g>
        </g>
    </g>
</svg>
