<?xml version="1.0" encoding="UTF-8"?>
<svg width="16px" height="16px" viewBox="0 0 16 16" version="1.1" xmlns="http://www.w3.org/2000/svg" xmlns:xlink="http://www.w3.org/1999/xlink">
    <title>Icon — Top Dashboard — Inegration Guides</title>
    <defs>
        <filter id="filter-1">
            <feColorMatrix in="SourceGraphic" type="matrix" values="0 0 0 0 0.124541 0 0 0 0 0.753470 0 0 0 0 0.906353 0 0 0 1.000000 0"></feColorMatrix>
        </filter>
    </defs>
    <g id="Design-System" stroke="none" stroke-width="1" fill="none" fill-rule="evenodd">
        <g id="Backend-Design-System/Atoms/Icons" transform="translate(-539.000000, -1047.000000)">
            <g id="Other" transform="translate(50.000000, 877.000000)">
                <g id="Guides" transform="translate(473.000000, 154.000000)">
                    <g id="Icon-—-Top-Dashboard-—-Inegration-Guides" transform="translate(16.000000, 16.000000)" filter="url(#filter-1)">
                        <g>
                            <rect id="Area" x="0" y="0" width="16" height="16"></rect>
                            <path d="M15.310658,9.75330304 L13.8400104,8.60330974 C13.8856038,8.20193708 13.8856038,7.79668944 13.8400104,7.39531678 L15.3120018,6.24466723 C15.5878439,6.02251228 15.6615622,5.63295204 15.4860008,5.32532884 L13.9560097,2.68068799 C13.779792,2.3711273 13.4044816,2.23594058 13.0713586,2.3620336 L11.3380249,3.05937329 C11.0123081,2.82306216 10.6634039,2.62046959 10.2966872,2.45472056 L10.0306888,0.613387536 C9.98272032,0.259889596 9.67944084,-0.00285887361 9.32269292,2.3485353e-05 L6.25605453,2.3485353e-05 C5.90227534,-0.00207762816 5.60143335,0.257733358 5.55205863,0.608043818 L5.28540394,2.45468931 C4.91981232,2.62203208 4.5714706,2.8247809 4.24541,3.06002953 L2.50738887,2.3613461 C2.17770329,2.23137811 1.80273673,2.36493983 1.62939399,2.67400053 L0.0980591571,5.32332885 C-0.0822210427,5.63145205 -0.00800272501,6.02529351 0.272058143,6.24666722 L1.74270583,7.39666052 C1.69667484,7.79800193 1.69667484,8.20331207 1.74270583,8.60465348 L0.270714401,9.75464678 C-0.00559648903,9.97648924 -0.0796585576,10.3662682 0.0960591688,10.6739852 L1.62539401,13.3193135 C1.80139298,13.629093 2.17692205,13.7643734 2.51004511,13.6379679 L4.24337876,12.9406282 C4.56937686,13.1770643 4.91849983,13.3798757 5.28537269,13.5459684 L5.55202738,15.3859577 C5.59896461,15.7385182 5.90036911,16.0013916 6.25602328,15.9999773 L9.32266167,15.9999773 C9.6770971,16.0027979 9.97890785,15.7428931 10.0286576,15.3919577 L10.2953123,13.5453122 C10.6608726,13.3779069 11.0091831,13.1751581 11.3353062,12.939972 L13.0752961,13.6393117 C13.4049816,13.7689671 13.7797607,13.6354992 13.9532909,13.3266572 L15.489282,10.6666727 C15.6612497,10.359487 15.5856564,9.97305176 15.310658,9.75330304 Z M7.7893581,11.3332938 C5.94843133,11.3332938 4.45603377,9.84092753 4.45603377,7.99996951 C4.45603377,6.15901148 5.94840008,4.66664517 7.7893581,4.66664517 C9.63031613,4.66664517 11.1226824,6.15901148 11.1226824,7.99996951 C11.1204637,9.84002129 9.62937863,11.3311063 7.7893581,11.3332938 Z" id="Shape" fill="#FFFFFF" fill-rule="nonzero"></path>
                        </g>
                    </g>
                </g>
            </g>
        </g>
    </g>
</svg>