<?xml version="1.0" encoding="UTF-8"?>
<svg width="18px" height="17px" viewBox="0 0 18 17" version="1.1" xmlns="http://www.w3.org/2000/svg" xmlns:xlink="http://www.w3.org/1999/xlink">
    <title>Icon — Mobile Menu Dark</title>
    <defs>
        <filter id="filter-1">
            <feColorMatrix in="SourceGraphic" type="matrix" values="0 0 0 0 1.000000 0 0 0 0 1.000000 0 0 0 0 1.000000 0 0 0 1.000000 0"></feColorMatrix>
        </filter>
    </defs>
    <g id="Design-System" stroke="none" stroke-width="1" fill="none" fill-rule="evenodd">
        <g id="Backend-Design-System/Atoms/Icons" transform="translate(-455.000000, -518.000000)">
            <g id="Menu" transform="translate(362.000000, 453.000000)">
                <g id="Default" transform="translate(0.000000, 50.000000)">
                    <g id="Dark" transform="translate(78.000000, 0.000000)">
                        <g id="Icon-—-Mobile-Menu-Dark" transform="translate(15.000000, 15.000000)" filter="url(#filter-1)">
                            <g>
                                <path d="M16.5,14 C17.3284271,14 18,14.6715729 18,15.5 C18,16.3284271 17.3284271,17 16.5,17 L1.5,17 C0.671572875,17 1.01453063e-16,16.3284271 0,15.5 C-1.01453063e-16,14.6715729 0.671572875,14 1.5,14 L16.5,14 Z M16.5,7 C17.3284271,7 18,7.67157288 18,8.5 C18,9.32842712 17.3284271,10 16.5,10 L1.5,10 C0.671572875,10 1.01453063e-16,9.32842712 0,8.5 C-1.01453063e-16,7.67157288 0.671572875,7 1.5,7 L16.5,7 Z M16.5,0 C17.3284271,-1.52179594e-16 18,0.671572875 18,1.5 C18,2.32842712 17.3284271,3 16.5,3 L1.5,3 C0.671572875,3 1.01453063e-16,2.32842712 0,1.5 C-1.01453063e-16,0.671572875 0.671572875,1.52179594e-16 1.5,0 L16.5,0 Z" id="Combined-Shape" fill="#FFFFFF"></path>
                                <rect id="Area" x="0" y="0" width="18" height="18"></rect>
                            </g>
                        </g>
                    </g>
                </g>
            </g>
        </g>
    </g>
</svg>