<?xml version="1.0" encoding="UTF-8"?>
<svg width="16px" height="16px" viewBox="0 0 16 16" version="1.1" xmlns="http://www.w3.org/2000/svg" xmlns:xlink="http://www.w3.org/1999/xlink">
    <title>Icon — Calendar</title>
    <g id="Design-System" stroke="none" stroke-width="1" fill="none" fill-rule="evenodd">
        <g id="Backend-Design-System/Atoms/Icons" transform="translate(-222.000000, -672.000000)">
            <g id="Other" transform="translate(50.000000, 610.000000)">
                <g id="Calendar" transform="translate(156.000000, 46.000000)">
                    <g id="Icon-—-Calendar" transform="translate(16.000000, 16.000000)">
                        <g id="Icon">
                            <rect id="Background" stroke="#181E26" x="0.5" y="0.5" width="15" height="15" rx="3"></rect>
                            <path d="M5,11 L5,13 L3,13 L3,11 L5,11 Z M9,11 L9,13 L7,13 L7,11 L9,11 Z M13,11 L13,13 L11,13 L11,11 L13,11 Z M5,7 L5,9 L3,9 L3,7 L5,7 Z M9,7 L9,9 L7,9 L7,7 L9,7 Z M13,7 L13,9 L11,9 L11,7 L13,7 Z M13,0 C14.6568542,-3.04359188e-16 16,1.34314575 16,3 L16,5 L0,5 L0,3 C-2.02906125e-16,1.34314575 1.34314575,3.04359188e-16 3,0 L13,0 Z" id="Combined-Shape" fill="#181E26"></path>
                        </g>
                    </g>
                </g>
            </g>
        </g>
    </g>
</svg>
